<svg width="21" height="21" viewBox="0 0 21 21" fill="none" xmlns="http://www.w3.org/2000/svg">
<g opacity="0.5">
<path d="M7.16789 5.95711C6.77737 5.56658 6.77737 4.93342 7.16789 4.54289C7.55842 4.15237 8.19158 4.15237 8.58211 4.54289L7.16789 5.95711ZM13.125 10.5L13.8321 9.79289L14.5392 10.5L13.8321 11.2071L13.125 10.5ZM8.58211 16.4571C8.19158 16.8476 7.55842 16.8476 7.16789 16.4571C6.77737 16.0666 6.77737 15.4334 7.16789 15.0429L8.58211 16.4571ZM8.58211 4.54289L13.8321 9.79289L12.4179 11.2071L7.16789 5.95711L8.58211 4.54289ZM13.8321 11.2071L8.58211 16.4571L7.16789 15.0429L12.4179 9.79289L13.8321 11.2071Z" fill="white"/>
</g>
</svg>
